<mxfile host="app.diagrams.net" modified="2023-03-16T08:45:40.082Z" agent="5.0 (Windows NT 10.0; Win64; x64) AppleWebKit/537.36 (KHTML, like Gecko) Chrome/111.0.0.0 Safari/537.36 Edg/111.0.1661.41" etag="FSFVACJMnAz_gDDgW7IX" version="20.8.23" type="github">
  <diagram id="qzLwJ4X5yYsX_Pqfa8gJ" name="第 1 页">
    <mxGraphModel dx="1401" dy="788" grid="1" gridSize="10" guides="1" tooltips="1" connect="1" arrows="1" fold="1" page="1" pageScale="1" pageWidth="827" pageHeight="1169" math="0" shadow="0">
      <root>
        <mxCell id="0" />
        <mxCell id="1" parent="0" />
        <mxCell id="-XkHRvkM_vw5rs00xsbZ-1" value="" style="rounded=0;whiteSpace=wrap;html=1;glass=0;shadow=0;perimeterSpacing=0;" parent="1" vertex="1">
          <mxGeometry x="80" y="30" width="680" height="470" as="geometry" />
        </mxCell>
        <mxCell id="-XkHRvkM_vw5rs00xsbZ-2" value="&lt;font style=&quot;font-size: 20px;&quot;&gt;基于深度学习的用电安全管理类隐患分析系统&lt;/font&gt;" style="rounded=0;whiteSpace=wrap;html=1;shadow=0;glass=0;strokeColor=default;fontFamily=宋体;fontSize=12;fontColor=default;fillColor=default;strokeWidth=0;opacity=0;" parent="1" vertex="1">
          <mxGeometry x="80" y="30" width="680" height="40" as="geometry" />
        </mxCell>
        <mxCell id="-XkHRvkM_vw5rs00xsbZ-4" value="&lt;font style=&quot;font-size: 18px;&quot;&gt;用户操作模块&lt;/font&gt;" style="rounded=1;whiteSpace=wrap;html=1;shadow=0;glass=0;strokeColor=default;fontFamily=宋体;fontSize=20;fontColor=default;fillColor=default;" parent="1" vertex="1">
          <mxGeometry x="105" y="90" width="290" height="40" as="geometry" />
        </mxCell>
        <mxCell id="-XkHRvkM_vw5rs00xsbZ-7" value="&lt;font style=&quot;font-size: 18px;&quot;&gt;数据存储模块&lt;/font&gt;" style="rounded=1;whiteSpace=wrap;html=1;shadow=0;glass=0;strokeColor=default;fontFamily=宋体;fontSize=20;fontColor=default;fillColor=default;" parent="1" vertex="1">
          <mxGeometry x="105" y="370" width="630" height="40" as="geometry" />
        </mxCell>
        <mxCell id="8fsPF6jv214_PspzoPRW-1" value="&lt;font style=&quot;font-size: 18px;&quot;&gt;告警信息模块&lt;/font&gt;" style="rounded=1;whiteSpace=wrap;html=1;shadow=0;glass=0;strokeColor=default;fontFamily=宋体;fontSize=20;fontColor=default;fillColor=default;" vertex="1" parent="1">
          <mxGeometry x="440" y="90" width="300" height="40" as="geometry" />
        </mxCell>
        <mxCell id="8fsPF6jv214_PspzoPRW-3" value="&lt;font style=&quot;font-size: 18px;&quot;&gt;数据获取模块&lt;/font&gt;" style="rounded=1;whiteSpace=wrap;html=1;shadow=0;glass=0;strokeColor=default;fontFamily=宋体;fontSize=20;fontColor=default;fillColor=default;" vertex="1" parent="1">
          <mxGeometry x="105" y="430" width="630" height="40" as="geometry" />
        </mxCell>
        <mxCell id="-XkHRvkM_vw5rs00xsbZ-13" value="深度学习模块" style="rounded=1;whiteSpace=wrap;html=1;shadow=0;glass=0;strokeColor=default;fontFamily=宋体;fontSize=18;fontColor=default;fillColor=default;verticalAlign=top;" parent="1" vertex="1">
          <mxGeometry x="110" y="150" width="630" height="200" as="geometry" />
        </mxCell>
        <mxCell id="-XkHRvkM_vw5rs00xsbZ-14" value="&lt;font style=&quot;font-size: 16px;&quot;&gt;图片分割模块&lt;/font&gt;" style="rounded=1;whiteSpace=wrap;html=1;shadow=0;glass=0;strokeColor=default;fontFamily=宋体;fontSize=18;fontColor=default;fillColor=default;" parent="1" vertex="1">
          <mxGeometry x="145" y="279.72810810810813" width="165.45454545454547" height="43.24324324324324" as="geometry" />
        </mxCell>
        <mxCell id="-XkHRvkM_vw5rs00xsbZ-15" value="&lt;font style=&quot;font-size: 16px;&quot;&gt;&lt;font style=&quot;font-size: 16px;&quot;&gt;设备状态&lt;/font&gt;识别模块&lt;/font&gt;" style="rounded=1;whiteSpace=wrap;html=1;shadow=0;glass=0;strokeColor=default;fontFamily=宋体;fontSize=18;fontColor=default;fillColor=default;" parent="1" vertex="1">
          <mxGeometry x="145" y="193.24324324324323" width="165.45454545454547" height="43.24324324324324" as="geometry" />
        </mxCell>
        <mxCell id="-XkHRvkM_vw5rs00xsbZ-16" value="配电所&lt;br&gt;场景识别模块" style="rounded=1;whiteSpace=wrap;html=1;shadow=0;glass=0;strokeColor=default;fontFamily=宋体;fontSize=18;fontColor=default;fillColor=default;verticalAlign=top;" parent="1" vertex="1">
          <mxGeometry x="342.27272727272725" y="193.24243243243245" width="165.45454545454547" height="129.72972972972974" as="geometry" />
        </mxCell>
        <mxCell id="-XkHRvkM_vw5rs00xsbZ-17" value="火灾情况&lt;br&gt;识别模块" style="rounded=1;whiteSpace=wrap;html=1;shadow=0;glass=0;strokeColor=default;fontFamily=宋体;fontSize=18;fontColor=default;fillColor=default;verticalAlign=top;" parent="1" vertex="1">
          <mxGeometry x="552.2727272727273" y="193.24243243243245" width="165.45454545454547" height="129.72972972972974" as="geometry" />
        </mxCell>
        <mxCell id="8fsPF6jv214_PspzoPRW-4" value="" style="shape=flexArrow;endArrow=classic;html=1;rounded=0;entryX=0.5;entryY=0;entryDx=0;entryDy=0;" edge="1" parent="1" source="-XkHRvkM_vw5rs00xsbZ-15" target="-XkHRvkM_vw5rs00xsbZ-14">
          <mxGeometry width="50" height="50" relative="1" as="geometry">
            <mxPoint x="150" y="610" as="sourcePoint" />
            <mxPoint x="200" y="560" as="targetPoint" />
          </mxGeometry>
        </mxCell>
        <mxCell id="8fsPF6jv214_PspzoPRW-5" value="&lt;font face=&quot;宋体&quot;&gt;Faster R-CNN&lt;/font&gt;" style="rounded=1;whiteSpace=wrap;html=1;" vertex="1" parent="1">
          <mxGeometry x="365" y="260" width="120" height="40" as="geometry" />
        </mxCell>
        <mxCell id="8fsPF6jv214_PspzoPRW-6" value="&lt;font face=&quot;宋体&quot;&gt;YOLO&lt;/font&gt;" style="rounded=1;whiteSpace=wrap;html=1;" vertex="1" parent="1">
          <mxGeometry x="575" y="260" width="120" height="40" as="geometry" />
        </mxCell>
      </root>
    </mxGraphModel>
  </diagram>
</mxfile>
